<svg viewBox="0 0 14 14" width="14" height="14"
     xmlns="http://www.w3.org/2000/svg">
    <path d="M13.683 3.024 7.131 1.02a.447.447 0 0 0-.262 0L.316 3.024A.448.448 0 0 0 0 3.45v6.917c0 .197.129.37.316.428L6.87 12.8a.45.45 0 0 0 .262 0l6.552-2.004a.447.447 0 0 0 .317-.428V3.451a.447.447 0 0 0-.317-.427ZM7 1.914l1.554.476-5.025 1.537-1.555-.476L7 1.914Zm-.447 9.854-5.66-1.73V4.055l5.66 1.731v5.982ZM7 4.988l-1.943-.593 5.026-1.538 1.942.594L7 4.99Zm6.106 5.05-5.659 1.73V5.788l5.659-1.732v5.983Z"
          fill="#000" fill-rule="nonzero" />
</svg>
